<svg xmlns="http://www.w3.org/2000/svg" viewBox="0 0 1000 1000">
  <defs>
    <radialGradient id="starGlow" cx="50%" cy="50%" r="50%">
      <stop offset="0%" stop-color="rgba(255,255,255,1)" stop-opacity="1"/>
      <stop offset="100%" stop-color="rgba(255,255,255,0)" stop-opacity="0"/>
    </radialGradient>
    <linearGradient id="bgGradient" x1="0%" y1="0%" x2="100%" y2="100%">
      <stop offset="0%" stop-color="#1e1b4b"/>
      <stop offset="30%" stop-color="#312e81"/>
      <stop offset="60%" stop-color="#581c87"/>
      <stop offset="100%" stop-color="#be185d"/>
    </linearGradient>
  </defs>
  
  <!-- 背景渐变 -->
  <rect width="1000" height="1000" fill="url(#bgGradient)"/>
  
  <!-- 星星 -->
  <g opacity="0.8">
    <circle cx="100" cy="150" r="1.5" fill="url(#starGlow)">
      <animate attributeName="opacity" values="0.3;1;0.3" dur="3s" repeatCount="indefinite"/>
    </circle>
    <circle cx="200" cy="80" r="1" fill="url(#starGlow)">
      <animate attributeName="opacity" values="0.5;1;0.5" dur="2.5s" repeatCount="indefinite"/>
    </circle>
    <circle cx="350" cy="120" r="1.2" fill="url(#starGlow)">
      <animate attributeName="opacity" values="0.4;1;0.4" dur="4s" repeatCount="indefinite"/>
    </circle>
    <circle cx="450" cy="200" r="0.8" fill="url(#starGlow)">
      <animate attributeName="opacity" values="0.6;1;0.6" dur="3.5s" repeatCount="indefinite"/>
    </circle>
    <circle cx="600" cy="100" r="1.3" fill="url(#starGlow)">
      <animate attributeName="opacity" values="0.3;1;0.3" dur="2.8s" repeatCount="indefinite"/>
    </circle>
    <circle cx="750" cy="180" r="1" fill="url(#starGlow)">
      <animate attributeName="opacity" values="0.5;1;0.5" dur="3.2s" repeatCount="indefinite"/>
    </circle>
    <circle cx="850" cy="120" r="1.1" fill="url(#starGlow)">
      <animate attributeName="opacity" values="0.4;1;0.4" dur="2.7s" repeatCount="indefinite"/>
    </circle>
    <circle cx="150" cy="300" r="0.9" fill="url(#starGlow)">
      <animate attributeName="opacity" values="0.6;1;0.6" dur="3.8s" repeatCount="indefinite"/>
    </circle>
    <circle cx="300" cy="350" r="1.4" fill="url(#starGlow)">
      <animate attributeName="opacity" values="0.3;1;0.3" dur="2.9s" repeatCount="indefinite"/>
    </circle>
    <circle cx="500" cy="400" r="1" fill="url(#starGlow)">
      <animate attributeName="opacity" values="0.5;1;0.5" dur="3.6s" repeatCount="indefinite"/>
    </circle>
    <circle cx="700" cy="320" r="1.2" fill="url(#starGlow)">
      <animate attributeName="opacity" values="0.4;1;0.4" dur="2.4s" repeatCount="indefinite"/>
    </circle>
    <circle cx="800" cy="380" r="0.8" fill="url(#starGlow)">
      <animate attributeName="opacity" values="0.6;1;0.6" dur="3.1s" repeatCount="indefinite"/>
    </circle>
  </g>
  
  <!-- 水瓶座仙女抱水瓶图案 -->
  <g opacity="0.6" stroke="rgba(135, 206, 250, 0.8)" stroke-width="2" fill="none">
    <!-- 仙女的头部 -->
    <circle cx="300" cy="200" r="8" fill="rgba(135, 206, 250, 0.3)"/>
    
    <!-- 仙女的身体轮廓 -->
    <path d="M300 210 L295 250 L305 250 Z" fill="rgba(135, 206, 250, 0.2)"/>
    <path d="M295 250 L290 300 L310 300 L305 250" fill="rgba(135, 206, 250, 0.2)"/>
    
    <!-- 仙女的手臂 -->
    <path d="M295 230 L250 240 L200 250 L150 260" stroke-width="1.5"/>
    
    <!-- 水瓶 -->
    <ellipse cx="120" cy="280" rx="15" ry="20" fill="rgba(173, 216, 230, 0.3)"/>
    <path d="M105 270 L135 270" stroke-width="1"/>
    <path d="M110 265 L130 265" stroke-width="1"/>
    
    <!-- 流水效果 -->
    <g opacity="0.7">
      <path d="M120 300 Q100 320 80 340 Q60 360 40 380" stroke="rgba(176, 224, 230, 0.8)" stroke-width="1">
        <animate attributeName="opacity" values="0.3;0.8;0.3" dur="4s" repeatCount="indefinite"/>
      </path>
      <path d="M125 305 Q105 325 85 345 Q65 365 45 385" stroke="rgba(176, 224, 230, 0.6)" stroke-width="0.8">
        <animate attributeName="opacity" values="0.2;0.7;0.2" dur="4.5s" repeatCount="indefinite"/>
      </path>
      <path d="M115 302 Q95 322 75 342 Q55 362 35 382" stroke="rgba(176, 224, 230, 0.4)" stroke-width="0.6">
        <animate attributeName="opacity" values="0.1;0.6;0.1" dur="5s" repeatCount="indefinite"/>
      </path>
    </g>
    
    <!-- 仙女的腿部 -->
    <path d="M290 300 L285 350 L280 400" stroke-width="1.5"/>
    <path d="M310 300 L315 350 L320 400" stroke-width="1.5"/>
    
    <!-- 连接线 -->
    <path d="M300 210 L300 250" stroke-width="1"/>
    <path d="M250 240 L200 250" stroke-width="1"/>
    <path d="M200 250 L150 260" stroke-width="1"/>
  </g>
  
  <!-- 星座连线 -->
  <g opacity="0.4" stroke="rgba(255,255,255,0.3)" stroke-width="0.8" fill="none">
    <path d="M100 150 L200 80 L350 120 L450 200 L600 100 L750 180 L850 120"/>
    <path d="M150 300 L300 350 L500 400 L700 320 L800 380"/>
  </g>
  
  <!-- 极光效果 -->
  <g opacity="0.3">
    <path d="M0 0 Q250 200 500 100 T1000 150" stroke="rgba(99, 102, 241, 0.4)" stroke-width="3" fill="none">
      <animate attributeName="d" values="M0 0 Q250 200 500 100 T1000 150;M0 50 Q250 150 500 200 T1000 100;M0 0 Q250 200 500 100 T1000 150" dur="20s" repeatCount="indefinite"/>
    </path>
    <path d="M0 100 Q300 300 600 200 T1000 250" stroke="rgba(168, 85, 247, 0.3)" stroke-width="2" fill="none">
      <animate attributeName="d" values="M0 100 Q300 300 600 200 T1000 250;M0 150 Q300 250 600 300 T1000 200;M0 100 Q300 300 600 200 T1000 250" dur="25s" repeatCount="indefinite"/>
    </path>
    <path d="M0 200 Q400 400 700 300 T1000 350" stroke="rgba(236, 72, 153, 0.2)" stroke-width="1.5" fill="none">
      <animate attributeName="d" values="M0 200 Q400 400 700 300 T1000 350;M0 250 Q400 350 700 400 T1000 300;M0 200 Q400 400 700 300 T1000 350" dur="30s" repeatCount="indefinite"/>
    </path>
  </g>
</svg>